# xmcd CD database file
#
# Track frame offsets:
#	150
#	16230
#	52010
#	72197
#	95168
#	121429
#	149348
#	179454
#	205325
#	233336
#	262498
#
# Disc length: 3645 seconds
#
# Revision: 0
# Processed by: cddbd v1.5.2PL0 Copyright (c) Steve Scherf et al.
# Submitted via: CDex 1.70beta2
#
DISCID=a60e3b0b
DTITLE=Steely Dan - Art Crimes [CD2]
DYEAR=1996
DGENRE=Jazz
TTITLE0=East St Louis Toodle-oo
TTITLE1=Glamour Profession
TTITLE2=My Waterloo
TTITLE3=Wet Side Story
TTITLE4=Midnite Cruiser
TTITLE5=Black Cow
TTITLE6=Home at Last
TTITLE7=Kid Charlemagne
TTITLE8=IGY
TTITLE9=My Old School
TTITLE10=Outro - FM vamp
EXTD=YEAR: 1996
EXTT0=
EXTT1=
EXTT2=
EXTT3=
EXTT4=
EXTT5=
EXTT6=
EXTT7=
EXTT8=
EXTT9=
EXTT10=
PLAYORDER=
